<svg xmlns="http://www.w3.org/2000/svg" width="1000" height="1000" viewBox="0 0 264.583 264.583"><defs><linearGradient id="A" x1="103.864" y1="242.292" x2="103.864" y2="-9.056" gradientUnits="userSpaceOnUse"><stop offset="0" stop-color="#1790f1"/><stop offset="1" stop-color="#0b6fc1"/></linearGradient></defs><path d="M3.251-9.05C1.331-9.215.001-8.096-.741-5.693c-.545 2.283-.716 4.597-.515 6.942.627 6.152 2.427 11.938 5.4 17.356a91.39 91.39 0 0 1 3.214 5.656 2.44 2.44 0 0 1 .193 1.028 1.66 1.66 0 0 1-.643-.064c-1.307-.964-2.442-2.099-3.407-3.406-2.282-3.061-4.339-6.276-6.171-9.643a7.81 7.81 0 0 0-3.021-2.764c-1.042-.42-2.027-.292-2.957.385-.902 1.012-1.48 2.19-1.735 3.536-.417 2.441-.417 4.883 0 7.328.877 4.239 2.334 8.268 4.372 12.085L.995 44.511l-.128.194a6.24 6.24 0 0 1-.901-.579c-2.152-2.067-4.38-4.038-6.685-5.914-1.647-1.124-3.447-1.895-5.4-2.314-1.951-.522-3.387.1-4.307 1.865-.559 2.688-.302 5.302.771 7.842a43.45 43.45 0 0 0 5.528 9.899A72.48 72.48 0 0 0 1.702 67.717c.287.615.073.872-.643.771a42.28 42.28 0 0 1-6.493-1.607 16.57 16.57 0 0 0-6.685-.386c-2.913.787-4.22 2.693-3.921 5.721a14.75 14.75 0 0 0 2.314 5.914 34.57 34.57 0 0 0 9.193 8.807c2.788 1.565 5.616 3.064 8.485 4.499l1.028.643a2.02 2.02 0 0 1 .643.836c-.055.291-.227.484-.515.579l-5.657 1.414c-1.393.439-2.679 1.082-3.857 1.928l-3.857 1.286a7.15 7.15 0 0 0-2.765 3.921c-.82 2.668-.348 5.069 1.414 7.2 2.238 2.018 4.874 3.111 7.907 3.278a41.17 41.17 0 0 0 9.193-.707l.193.128-7.907 8.357c-1.006 1.239-1.948 2.525-2.828 3.857a14.33 14.33 0 0 0-1.414 3.342c-.421 1.738.072 3.131 1.479 4.179a9.62 9.62 0 0 0 5.336 1.221c2.463-.126 4.927-.148 7.392-.064.681.14.917.548.707 1.222a99.57 99.57 0 0 0-3.342 5.913c-.224.585-.396 1.186-.515 1.8-.409 3.103.898 5.053 3.921 5.849 1.829.309 3.629.18 5.4-.385l6.171-2.314c1.417-.468 1.91.024 1.479 1.479a22.49 22.49 0 0 0-.515 2.314c-.365 2.332.107 4.475 1.414 6.428 1.199 1.77 2.784 2.242 4.757 1.414a.56.56 0 0 1 .515.257 90.35 90.35 0 0 0 .964 5.079c-.011.481-.268.738-.771.771-4.246-.041-8.06 1.201-11.442 3.728a45.43 45.43 0 0 1-5.658 4.242 11.63 11.63 0 0 1-7.071 1.543 3.27 3.27 0 0 1-2.378-1.864l-.515-2.7c-.861-2.058-2.296-2.594-4.306-1.607-1.909 1.657-2.488 3.692-1.736 6.107a9.82 9.82 0 0 0 2.122 3.15 22 22 0 0 0 11.699 5.143c3.747.333 7.476.182 11.186-.45.274-.145.573-.167.9-.064a.55.55 0 0 1-.257.194l-5.464 6.556c-.522.738-.994 1.509-1.414 2.314-.525 1.723.053 2.217 1.735 1.479l5.143-2.571c.863-.387 1.762-.644 2.699-.771 3.328-.226 6.585.159 9.771 1.157a12.73 12.73 0 0 1 2.957 1.286c.604.559.668 1.18.193 1.864a10.96 10.96 0 0 1-1.479 1.35 34.42 34.42 0 0 0-3.342 2.186c-2.479 2.178-2.693 4.535-.643 7.071 2.014 1.648 4.328 2.592 6.943 2.829l6.171.385a1.53 1.53 0 0 1 1.222.579 7.77 7.77 0 0 1 0 4.371c-.17.256-.405.404-.707.449a21.61 21.61 0 0 0-3.472.643c-.765.319-.958.854-.579 1.607.542.625 1.207 1.075 1.993 1.35 3.556 1.115 7.113 1.115 10.671 0 1.142-.507 2.299-.979 3.471-1.414 1.458-.329 2.594.121 3.408 1.35a61.88 61.88 0 0 1 1.8 4.114c.952 1.144 1.938 1.186 2.957.128.154-.761.239-1.532.257-2.314 1.064-2.65 2.757-4.813 5.079-6.492 2.856-1.369 3.52-.704 1.992 1.993a12.44 12.44 0 0 0-.771 7.714c.331.766.867.958 1.608.578l1.092-1.092c1.615-2.56 3.522-4.896 5.721-7.007a10.14 10.14 0 0 1 3.857-2.378c.474.152.731.473.771.964-.333 1.439-.697 2.874-1.092 4.307-.134 1.109-.198 2.222-.193 3.342a13.41 13.41 0 0 0 1.735 7.585c.712 1.07 1.634 1.305 2.765.707.587-.576 1.144-1.176 1.671-1.801a1.46 1.46 0 0 0 .449-.193c.137.089.288.153.45.193 2.78 2.47 3.787 5.533 3.021 9.192a4 4 0 0 1-1.479 2.508c-.498.195-1.012.238-1.543.128-.707-.462-1.436-.89-2.186-1.286-.429-.086-.857-.086-1.286 0-.199.156-.348.349-.449.579-.086.557-.086 1.114 0 1.671.528 1.387 1.364 2.566 2.507 3.536 2.088 1.705 4.316 1.919 6.686.642a19.51 19.51 0 0 0 4.05-4.306 151.68 151.68 0 0 1 4.757-6.942c.519-.591 1.141-1.042 1.865-1.35a9.69 9.69 0 0 0 2.378-4.178l.771-4.115c.197-.265.454-.436.771-.514a4.33 4.33 0 0 1 1.607.836 68.83 68.83 0 0 0 3.729 3.342 3.28 3.28 0 0 0 1.928.836.9.9 0 0 0 .964-.643 58.08 58.08 0 0 0 .258-5.142.85.85 0 0 1 .385-.386c1.284.782 2.634 1.447 4.05 1.993 1.353.333 2.724.546 4.115.642.436.103.866.232 1.286.386 1.311.764 2.641 1.491 3.985 2.186 1.823.413 3.667.712 5.528.9.72.233 1.448.426 2.186.579a65.84 65.84 0 0 1 3.857-1.093c3.651.082 6.908-.988 9.77-3.214.462-.375.826-.826 1.093-1.35.289-1.102-.117-1.466-1.222-1.092-.665.397-1.307.826-1.928 1.286-2.157.672-4.343.758-6.557.257-5.875-1.274-10.483-4.38-13.821-9.321a2.96 2.96 0 0 1-.578-1.929 3.2 3.2 0 0 1 .9.064l8.871 3.6c4.313 1.766 8.793 2.817 13.436 3.15.77.027 1.52-.079 2.25-.321.879-.546 1.779-1.061 2.699-1.543 3.327-1.428 6.799-2.286 10.414-2.572a30.35 30.35 0 0 0 3.342-1.671c1.53-.51 3.073-.982 4.628-1.414a3.11 3.11 0 0 0 1.222-1.349c.305-1.268.391-2.553.257-3.857-.023-.837-.43-1.115-1.222-.836l-.836.836c-1.403 2.945-3.117 3.16-5.142.643-1.156-2.395-1.67-4.923-1.543-7.585.194-.442.536-.614 1.028-.515l5.979.964a15.59 15.59 0 0 0 5.142-.385c2.477-.648 4.342-2.084 5.593-4.307 1.077-3.039.498-5.717-1.736-8.035-.566-.177-1.015-.028-1.349.449a14.01 14.01 0 0 0-.064 4.179 4.38 4.38 0 0 1-.45 1.607.9.9 0 0 1-.45.321c-1.157.215-2.228 0-3.214-.643-1.954-1.31-3.796-2.766-5.528-4.37 1.192-.762 2.113-1.769 2.765-3.021a2.08 2.08 0 0 0 0-1.029 4.77 4.77 0 0 0-1.865-2.249c-2.713-1.484-5.541-2.705-8.485-3.664-.102-.036-.187-.1-.257-.193.454-.104.881-.082 1.285.064l5.786-.322c3.82-.273 7.206-1.6 10.157-3.985 2.12-1.901 2.698-4.194 1.735-6.878a1.98 1.98 0 0 0-.706-.964c-.49-.151-.854-.001-1.093.449-.144 1.07-.272 2.141-.385 3.215-.423 1.895-1.602 2.645-3.536 2.249-1.997-.51-4.011-.939-6.043-1.285a121.19 121.19 0 0 1-5.914-.643c-.662-.428-.811-1.006-.449-1.735l3.6-3.6.514-.771c.091-1.291.777-1.978 2.057-2.057a64.2 64.2 0 0 0 4.178-.449l1.158-.386c2.105-.863 3.283-2.426 3.535-4.692a.9.9 0 0 1 .322-.449c1.671-.136 3.342-.223 5.014-.258a4.1 4.1 0 0 0 2.508-2.121 8.11 8.11 0 0 0-.515-5.786 155.57 155.57 0 0 1-2.507-5.4.93.93 0 0 1 .257-.321c1.581.397 3.166.826 4.757 1.285a11.03 11.03 0 0 0 5.914-.514c3.361-1.815 4.754-4.622 4.178-8.421-.563-2.69-1.869-4.94-3.921-6.75a51.51 51.51 0 0 1-4.178-3.536c-.311-.765-.032-1.172.836-1.221l8.485-.128c1.93-.186 3.687-.83 5.271-1.929 1.828-1.748 3.007-3.869 3.535-6.364a4.89 4.89 0 0 0-.771-3.857c-.877-1.004-1.884-1.841-3.021-2.508-3.876-1.981-7.819-3.824-11.828-5.528-1.158-1.061-.987-1.833.515-2.314 8.53-1.959 15.537-6.308 21.02-13.049 1.43-1.872 2.245-3.972 2.443-6.299-.499-.456-1.035-.863-1.607-1.221a28.86 28.86 0 0 0-4.5-1.801 225.72 225.72 0 0 0-6.556-1.671c-.615-.35-.68-.8-.194-1.35 2.357-2.186 4.629-4.457 6.814-6.814a42.11 42.11 0 0 0 6.814-12.856c.696-2.148.867-4.334.515-6.557-.904-1.641-2.298-2.305-4.179-1.992-2.204.716-4.174 1.83-5.913 3.342-5.711 5.337-11.796 10.18-18.257 14.528-.87.585-1.813.992-2.829 1.221a2.28 2.28 0 0 1 .194-.9 34.27 34.27 0 0 1 2.828-3.985c4.063-4.577 8.219-9.076 12.471-13.499a68.17 68.17 0 0 0 12.985-23.399 17.35 17.35 0 0 0 .515-8.485c-.792-2.084-2.271-2.962-4.436-2.635a7.81 7.81 0 0 0-2.25 1.864 115.01 115.01 0 0 1-7.971 10.285 54.63 54.63 0 0 1-6.428 6.172.83.83 0 0 1 0-.643l1.413-2.829c2.589-4.564 5.075-9.192 7.457-13.885l4.243-11.442c.396-1.366.631-2.758.707-4.178-.019-.861-.169-1.697-.45-2.508-.455-.882-1.184-1.352-2.186-1.413-1.878.328-3.527 1.121-4.949 2.378l-22.885 23.27c-4.765 4.679-9.608 9.265-14.528 13.756-4.677 4.2-9.519 8.185-14.528 11.956l-4.242 3.728c-5.861 5.49-10.512 11.854-13.949 19.092-2.493 5.396-3.479 11.053-2.957 16.97a18.16 18.16 0 0 0 2.828 8.228c.163 3.139.892 6.138 2.186 8.999l3.472 6.686c1.026 2.427 1.453 4.956 1.285 7.585-.329 4.099-2.408 6.863-6.235 8.292l-5.142 1.157a30.5 30.5 0 0 0-4.886 2.057c-1.219.321-2.226 0-3.021-.964a40.51 40.51 0 0 1-.9-2.7 5.49 5.49 0 0 0-1.35-1.221 16.62 16.62 0 0 0-4.628-1.672c-2.189-.135-4.375-.305-6.556-.514-2.453-.77-3.288-2.378-2.507-4.822.909-1.066 2.002-1.902 3.278-2.507.408-.321.771-.685 1.092-1.092a83.73 83.73 0 0 0 .901-3.472l.642-1.157 4.115-4.628c1.809-2.383 2.665-5.084 2.571-8.1-.017-.811.304-1.432.964-1.864.644-.014 1.179-.251 1.607-.707-.039-1.584-.039-3.17 0-4.757.449-2.841.963-5.669 1.543-8.485a31.22 31.22 0 0 0 .322-4.886 13.57 13.57 0 0 0-.707-5.271c-.611-.763-.997-1.62-1.158-2.571a19.09 19.09 0 0 0 5.722.064c2.983-.312 3.368-1.468 1.157-3.471a70.23 70.23 0 0 1-4.628-3.343l-7.971-6.942c-4.812-3.799-10.168-6.627-16.071-8.485-4.343-1.4-8.757-1.7-13.242-.9-5.835 1.615-8.428 5.451-7.778 11.506.264.487.67.638 1.221.45l2.314-1.029c1.337-.383 2.537-.126 3.6.771a19.16 19.16 0 0 1 3.6 5.4c.211.432.275.882.193 1.35-.378.305-.785.326-1.222.064-1.329-.75-2.615-1.564-3.857-2.443-.656-.371-1.341-.671-2.056-.9-.89-.182-1.169.139-.836.964a30.22 30.22 0 0 0 5.592 4.692c3.643 2.336 7.328 4.607 11.056 6.814.826.569 1.576 1.233 2.25 1.993.121.366.057.687-.193.964-.517.286-1.052.522-1.607.707-.75-.579-1.415-1.243-1.993-1.993a10.91 10.91 0 0 0-3.599-1.414c-2.18-.051-4.151-.693-5.914-1.928a11.4 11.4 0 0 1-2.636-3.921c-.588-.947-1.424-1.268-2.507-.964-3.419.904-4.34 2.938-2.764 6.106a12.7 12.7 0 0 0 6.492 4.822 49.61 49.61 0 0 1 4.628 1.671 17.93 17.93 0 0 1 4.949 3.278c.284.425.52.875.707 1.35a43.53 43.53 0 0 0-13.114 4.242c-.906.519-1.698 1.184-2.378 1.993-.129.774-.387 1.503-.771 2.186-1.939 2.29-3.525 4.819-4.757 7.585a8.77 8.77 0 0 1-2.764 3.15 23.95 23.95 0 0 0-3.151 1.35c-.086.214-.086.428 0 .642.817.689 1.588 1.417 2.314 2.186.086.3.086.6 0 .9l-2.828 4.371c-.86 1.721-1.504 3.521-1.929 5.4a121.77 121.77 0 0 1-1.543 7.714 7.29 7.29 0 0 1-1.157 1.929c-1.44 1.332-3.048 2.424-4.822 3.278a3.01 3.01 0 0 1-1.8.385c.228-.442.507-.849.836-1.221a131.64 131.64 0 0 1 6.107-5.914c-.848-.768-1.748-1.475-2.699-2.122-2.821-2.719-3.957-6.04-3.408-9.964a141.42 141.42 0 0 1 .964-5.913c-.049-.283.038-.497.258-.643 1.515-2.48 3.207-4.837 5.078-7.071 2.008-2.827 3.637-5.869 4.886-9.128 2.19-7.29 1.461-14.275-2.186-20.955-1.431-2.131-3.016-4.145-4.757-6.043l-6.429-6.686-38.184-38.054-1.929-2.829C14.538 6.135 11.195 1.722 8.258-2.992c-.253-.709-.424-1.437-.514-2.186-.354-1.424-1.148-2.516-2.379-3.278-.771-.34-1.475-.539-2.115-.594z" opacity=".992" fill="url(#A)" fill-rule="evenodd" image-rendering="optimizeQuality" shape-rendering="geometricPrecision" text-rendering="geometricPrecision" transform="translate(28.434 15.681)"/></svg>