<?xml version="1.0" standalone="no"?>
<!DOCTYPE svg PUBLIC "-//W3C//DTD SVG 20010904//EN"
 "http://www.w3.org/TR/2001/REC-SVG-20010904/DTD/svg10.dtd">
<svg version="1.0" xmlns="http://www.w3.org/2000/svg"
 width="700.000000pt" height="700.000000pt" viewBox="0 0 700.000000 700.000000"
 preserveAspectRatio="xMidYMid meet">
<metadata>
Created by potrace 1.14, written by Peter Selinger 2001-2017
</metadata>
<g transform="translate(0.000000,700.000000) scale(0.100000,-0.100000)"
fill="#000000" stroke="none">
<path d="M788 6811 c-87 -44 -92 -281 -11 -521 28 -83 68 -168 131 -277 42
-72 49 -93 34 -93 -32 0 -139 133 -219 273 -56 96 -105 147 -144 147 -46 0
-60 -11 -84 -63 -45 -95 -26 -269 48 -447 28 -68 171 -323 219 -392 28 -41 4
-34 -45 11 -115 106 -136 123 -192 151 -33 16 -81 33 -107 36 -43 6 -50 4 -76
-22 -24 -25 -29 -38 -31 -90 -4 -115 91 -314 226 -474 52 -62 180 -189 228
-228 49 -39 39 -55 -25 -41 -25 6 -52 12 -61 14 -8 2 -38 10 -65 18 -28 8 -82
15 -121 15 -78 0 -119 -17 -148 -61 -35 -53 -12 -165 52 -258 43 -61 181 -199
200 -199 3 0 14 -6 22 -14 9 -8 66 -40 127 -73 141 -74 162 -88 149 -101 -5
-6 -48 -20 -95 -32 -47 -12 -104 -32 -127 -45 -23 -13 -65 -31 -92 -40 -142
-47 -176 -239 -58 -329 63 -49 127 -66 235 -65 53 0 118 4 145 8 26 4 47 6 47
3 0 -5 -61 -70 -146 -156 -56 -58 -133 -163 -154 -210 -36 -86 -21 -133 54
-167 34 -15 66 -19 179 -19 104 0 139 -3 143 -13 2 -7 -16 -50 -42 -95 -77
-136 -79 -209 -6 -256 67 -44 137 -39 298 22 98 37 112 33 95 -31 -17 -71 -13
-127 13 -184 29 -62 66 -85 120 -76 27 4 36 2 37 -8 0 -8 3 -25 6 -39 3 -14 6
-43 7 -65 l1 -40 -65 -7 c-113 -11 -182 -44 -330 -158 -154 -118 -306 -122
-325 -8 -9 52 -29 84 -57 92 -33 8 -85 -21 -102 -59 -46 -96 18 -200 167 -273
108 -53 174 -65 332 -59 77 3 149 8 159 13 19 7 19 6 -2 -22 -11 -16 -39 -49
-62 -74 -90 -100 -134 -190 -94 -190 9 0 51 16 93 36 117 56 140 62 221 59
115 -4 261 -47 274 -80 9 -24 -11 -47 -73 -88 -32 -20 -67 -47 -80 -60 -52
-57 -31 -148 44 -193 57 -33 93 -43 189 -50 160 -11 156 -9 156 -85 0 -54 -9
-64 -70 -74 -58 -9 -73 -21 -59 -46 18 -35 78 -55 189 -63 43 -3 131 16 185
39 93 40 118 29 170 -78 24 -49 35 -63 56 -65 28 -3 43 18 53 77 12 69 116
180 173 184 31 2 33 -14 8 -66 -13 -25 -31 -113 -27 -128 0 -4 2 -23 4 -44 4
-69 49 -64 95 13 33 54 133 161 174 188 71 45 87 31 64 -56 -29 -113 -23 -235
15 -313 31 -65 61 -73 105 -27 16 16 34 30 39 30 16 -1 71 -79 85 -119 16 -49
14 -111 -7 -150 -27 -54 -45 -60 -95 -33 -51 27 -77 21 -77 -17 0 -35 50 -111
87 -133 102 -59 176 -14 318 194 43 62 83 115 89 117 6 2 26 19 43 38 32 33
53 90 68 176 8 52 29 48 111 -23 74 -65 110 -82 125 -59 5 8 9 44 9 82 0 37 3
67 7 67 3 0 29 -11 58 -25 29 -13 83 -29 121 -35 41 -7 89 -23 121 -41 70 -40
251 -76 305 -60 20 6 63 14 95 17 122 12 245 74 251 127 4 33 -3 34 -65 1
-127 -65 -338 -2 -484 146 -67 68 -102 130 -73 130 8 0 75 -25 150 -56 199
-81 275 -102 430 -120 45 -5 60 -1 135 34 82 39 167 64 258 77 25 4 65 17 91
30 25 13 72 31 103 40 64 18 87 36 88 68 1 12 2 39 4 60 5 59 -20 60 -67 4
-36 -42 -41 -45 -66 -36 -15 6 -35 17 -44 26 -40 36 -72 215 -41 227 8 3 19 4
23 1 15 -10 125 -20 205 -20 99 1 161 28 208 93 25 34 31 52 31 95 -1 82 -56
169 -87 138 -6 -6 -10 -39 -9 -75 0 -37 -5 -71 -12 -81 -22 -30 -77 -11 -162
56 l-76 61 30 31 c79 82 42 128 -168 213 -61 24 -69 33 -29 30 54 -4 198 11
248 25 98 27 203 107 217 165 9 34 -2 104 -18 120 -21 21 -35 3 -42 -51 -13
-97 -40 -112 -157 -83 -40 9 -105 20 -144 24 -94 8 -107 11 -123 28 -12 12 -6
23 47 80 33 36 61 72 61 80 0 21 24 36 66 41 132 17 160 27 192 72 10 16 22
40 26 55 4 16 14 29 24 30 9 0 22 2 27 3 6 2 32 3 58 4 39 1 54 7 78 30 44 45
41 107 -12 228 -23 51 -40 96 -37 98 2 2 37 -5 78 -15 179 -46 305 21 314 167
7 106 -37 181 -168 289 -35 29 -48 45 -43 57 5 15 24 17 130 17 197 0 259 28
316 142 49 97 39 167 -31 220 -31 24 -161 89 -305 153 -45 20 -63 33 -63 47 0
20 12 27 115 58 150 46 282 127 400 246 110 110 160 218 117 257 -20 18 -123
63 -163 71 -70 13 -155 40 -161 50 -4 6 35 54 96 116 115 117 175 203 228 330
44 102 54 139 57 207 3 61 -9 87 -48 107 -66 35 -139 -4 -333 -177 -40 -35
-125 -103 -188 -151 -63 -47 -126 -95 -139 -105 -35 -27 -111 -64 -118 -57
-16 16 79 131 308 376 175 188 220 249 350 490 19 36 51 115 79 197 63 190 36
334 -63 333 -39 -1 -70 -26 -122 -100 -103 -145 -326 -392 -341 -377 -6 6 22
62 130 262 45 83 89 166 98 185 34 78 118 318 126 360 11 61 0 127 -24 145
-22 17 -71 12 -118 -12 -16 -8 -219 -205 -450 -437 -375 -377 -554 -549 -681
-657 -22 -19 -42 -36 -45 -39 -12 -12 -111 -91 -180 -144 -192 -148 -354 -322
-463 -497 -31 -52 -56 -96 -55 -99 1 -3 -10 -25 -24 -50 -55 -95 -90 -251 -89
-390 0 -94 18 -174 56 -254 14 -29 25 -64 25 -77 0 -53 34 -150 95 -275 88
-178 104 -272 65 -377 -33 -87 -86 -126 -222 -158 -43 -10 -105 -30 -139 -44
-95 -41 -111 -34 -151 60 -22 52 -152 99 -268 97 -34 0 -103 20 -117 34 -8 8
-17 31 -20 52 -5 35 -2 41 38 75 78 65 87 78 99 127 9 37 27 66 77 122 74 82
112 154 119 225 8 79 13 91 42 105 26 13 27 17 34 108 3 52 11 118 17 147 21
106 26 150 25 248 0 83 -4 107 -22 142 -12 23 -22 44 -22 46 0 3 43 6 95 9
148 6 160 37 47 120 -31 23 -115 92 -187 153 -147 126 -217 176 -325 230 -188
93 -301 124 -446 120 -104 -3 -179 -26 -232 -71 -57 -48 -81 -98 -86 -179 -5
-78 3 -85 64 -61 82 32 120 14 184 -88 40 -63 46 -79 36 -96 -6 -10 -18 -7
-51 13 -87 52 -143 77 -153 67 -24 -24 123 -138 345 -269 106 -62 149 -97 149
-121 0 -36 -38 -34 -79 3 -31 28 -56 39 -118 53 -130 29 -153 44 -217 144 -19
30 -27 35 -60 34 -72 -3 -116 -61 -94 -127 14 -41 72 -103 123 -130 22 -11 75
-33 119 -49 87 -30 166 -77 196 -116 l20 -25 -102 -27 c-207 -55 -290 -99
-319 -167 -11 -25 -32 -62 -48 -82 -16 -20 -46 -67 -66 -106 -49 -90 -79 -122
-137 -147 -27 -11 -48 -24 -48 -29 0 -5 13 -18 30 -30 16 -12 31 -28 34 -36 4
-8 -13 -45 -37 -81 -23 -37 -48 -79 -54 -94 -15 -33 -39 -128 -47 -181 -23
-148 -44 -183 -155 -249 -46 -28 -71 -35 -71 -20 0 5 38 46 85 93 47 46 85 87
85 91 0 4 -17 19 -39 35 -99 71 -136 191 -107 351 3 17 8 46 11 63 7 36 38 88
116 189 66 86 130 201 158 283 11 31 18 57 16 57 -3 0 0 12 6 27 15 41 13 190
-5 273 -21 101 -70 200 -145 292 -34 42 -320 334 -637 650 -317 315 -594 598
-617 628 -23 30 -71 90 -107 133 -114 137 -176 231 -200 305 -32 95 -103 138
-172 103z"/>
</g>
</svg>
